<svg xmlns="http://www.w3.org/2000/svg" viewBox="0 0 1400 1800" width="1400" height="1800">
  <defs>
    <linearGradient id="bg" x1="0" y1="0" x2="0" y2="1">
      <stop offset="0%" stop-color="#f8fafc" />
      <stop offset="55%" stop-color="#eef2ff" />
      <stop offset="100%" stop-color="#e2e8f0" />
    </linearGradient>
    <radialGradient id="spot" cx="50%" cy="22%" r="60%">
      <stop offset="0%" stop-color="#ffffff" stop-opacity="0.92" />
      <stop offset="55%" stop-color="#ffffff" stop-opacity="0.34" />
      <stop offset="100%" stop-color="#ffffff" stop-opacity="0" />
    </radialGradient>
    <linearGradient id="fabricShade" x1="0" y1="0" x2="1" y2="1">
      <stop offset="0%" stop-color="#ab4243" stop-opacity="1" />
      <stop offset="55%" stop-color="#ab4243" stop-opacity="0.92" />
      <stop offset="100%" stop-color="#ffffff" stop-opacity="0.18" />
    </linearGradient>
    <linearGradient id="fabricShadow" x1="0" y1="0" x2="0" y2="1">
      <stop offset="0%" stop-color="#0f172a" stop-opacity="0.18" />
      <stop offset="100%" stop-color="#0f172a" stop-opacity="0.02" />
    </linearGradient>
    <pattern id="weave" width="34" height="34" patternUnits="userSpaceOnUse">
      <path d="M0 0 L34 34" stroke="#ffffff" stroke-opacity="0.09" stroke-width="5" />
      <path d="M34 0 L0 34" stroke="#ffffff" stroke-opacity="0.05" stroke-width="5" />
      <circle cx="17" cy="17" r="1.6" fill="#ffffff" fill-opacity="0.14" />
    </pattern>
    <filter id="blurShadow" x="-20%" y="-20%" width="140%" height="140%">
      <feGaussianBlur stdDeviation="18" />
    </filter>
  </defs>

  <rect width="100%" height="100%" fill="url(#bg)" />
  <ellipse cx="700" cy="1500" rx="380" ry="80" fill="#0f172a" fill-opacity="0.16" filter="url(#blurShadow)" />
  <ellipse cx="700" cy="1360" rx="420" ry="120" fill="#0f172a" fill-opacity="0.08" />
  <circle cx="1040" cy="260" r="260" fill="url(#spot)" />

  <g transform="translate(140, 80)">
    <path d="M260 160 L390 82 C446 50 502 36 560 36 L840 36 C898 36 954 50 1010 82 L1140 160 L1066 346 L962 284 L962 1520 L438 1520 L438 284 L334 346 Z" fill="#ab4243" opacity="0.12" />

    <path d="M308 176 L434 98 C478 70 522 58 570 58 L830 58 C878 58 922 70 966 98 L1092 176 L1028 336 L942 276 L942 1490 L458 1490 L458 276 L372 336 Z" fill="url(#fabricShade)" stroke="#ffffff" stroke-opacity="0.42" stroke-width="8" />

    <path d="M390 104 L448 76 L548 220 L852 220 L952 76 L1010 104 L920 260 L480 260 Z" fill="#ab4243" stroke="#ffffff" stroke-opacity="0.34" stroke-width="6" />
    <path d="M520 116 L580 72 L700 198 L820 72 L880 116 L792 260 L608 260 Z" fill="#ffffff" fill-opacity="0.28" />

    <path d="M458 286 L588 302 L588 1490 L458 1490 Z" fill="#ffffff" fill-opacity="0.08" />
    <path d="M942 286 L812 302 L812 1490 L942 1490 Z" fill="#ffffff" fill-opacity="0.08" />

    <path d="M560 260 C560 360 560 430 560 520 C560 600 540 666 516 740 C488 824 470 910 470 1030 C470 1188 510 1314 572 1490" fill="none" stroke="#ffffff" stroke-opacity="0.11" stroke-width="12" />
    <path d="M840 260 C840 360 840 430 840 520 C840 600 860 666 884 740 C912 824 930 910 930 1030 C930 1188 890 1314 828 1490" fill="none" stroke="#ffffff" stroke-opacity="0.11" stroke-width="12" />

    <path d="M588 302 C624 324 658 340 700 340 C742 340 776 324 812 302 L812 1450 C776 1466 742 1478 700 1478 C658 1478 624 1466 588 1450 Z" fill="url(#weave)" opacity="0.92" />
    <path d="M476 318 L554 318 L554 1450 L476 1450 Z" fill="url(#weave)" opacity="0.92" />
    <path d="M846 318 L924 318 L924 1450 L846 1450 Z" fill="url(#weave)" opacity="0.92" />

    <path d="M612 340 C664 406 736 406 788 340" fill="none" stroke="#ffffff" stroke-opacity="0.72" stroke-width="7" stroke-linecap="round" />
    <path d="M700 340 L700 1470" fill="none" stroke="#ffffff" stroke-opacity="0.22" stroke-width="5" stroke-linecap="round" />
    <circle cx="700" cy="430" r="12" fill="#ffffff" fill-opacity="0.7" />
    <circle cx="700" cy="520" r="12" fill="#ffffff" fill-opacity="0.7" />
    <circle cx="700" cy="610" r="12" fill="#ffffff" fill-opacity="0.7" />
    <circle cx="700" cy="700" r="12" fill="#ffffff" fill-opacity="0.7" />

    <path d="M258 170 L134 330 C84 392 72 456 82 518 C92 582 130 632 188 666 L262 708 L308 634 L272 606 C244 584 230 548 232 514 C234 482 248 450 278 408 L370 274 Z" fill="url(#fabricShade)" stroke="#ffffff" stroke-opacity="0.34" stroke-width="8" />
    <path d="M1142 170 L1266 330 C1316 392 1328 456 1318 518 C1308 582 1270 632 1212 666 L1138 708 L1092 634 L1128 606 C1156 584 1170 548 1168 514 C1166 482 1152 450 1122 408 L1030 274 Z" fill="url(#fabricShade)" stroke="#ffffff" stroke-opacity="0.34" stroke-width="8" />

    <path d="M182 672 L286 618 L324 1460 L214 1460 C162 1460 120 1418 120 1366 L120 800 C120 744 144 694 182 672 Z" fill="url(#fabricShade)" />
    <path d="M1218 672 L1114 618 L1076 1460 L1186 1460 C1238 1460 1280 1418 1280 1366 L1280 800 C1280 744 1256 694 1218 672 Z" fill="url(#fabricShade)" />

    <path d="M324 1460 L276 1546 L202 1546 L186 1490 L214 1460 Z" fill="#ab4243" />
    <path d="M1076 1460 L1124 1546 L1198 1546 L1214 1490 L1186 1460 Z" fill="#ab4243" />
  </g>

  <rect x="40" y="40" width="1320" height="1720" rx="52" fill="none" stroke="#ffffff" stroke-opacity="0.3" stroke-width="2" />
  <rect x="56" y="56" width="1288" height="1688" rx="44" fill="none" stroke="#0f172a" stroke-opacity="0.06" stroke-width="2" />
</svg>